<svg id="Capa_1" enable-background="new 0 0 512 512" height="512" viewBox="0 0 512 512" width="512" xmlns="http://www.w3.org/2000/svg"><g><path d="m228.228 223.279 29.392-65.589-63.179-153.866c-.947-2.313-3.199-3.824-5.699-3.824h-56.019c-4.377 0-7.356 4.439-5.698 8.489l87.92 214.79z" fill="#ff4756"/><path d="m155.87 8.489c-1.658-4.05 1.321-8.489 5.699-8.489h-28.845c-4.377 0-7.356 4.439-5.698 8.489l87.92 214.79h13.283l8.133-18.15z" fill="#fc2d39"/><path d="m232.466 220.661h-16.208c-12.719 0-23.068 10.348-23.068 23.068v55.417c0 4.267 3.459 7.726 7.726 7.726s7.726-3.459 7.726-7.726v-55.417c0-4.199 3.416-7.615 7.615-7.615h9.882z" fill="#dfebfa"/><path d="m296.05 220.669-6.323 15.445h6.015c4.199 0 7.615 3.416 7.615 7.615v55.417c0 4.267 3.459 7.726 7.726 7.726s7.726-3.459 7.726-7.726v-55.417c.001-12.617-10.181-22.895-22.759-23.06z" fill="#dfebfa"/><path d="m379.277 0h-56.02c-2.499 0-4.751 1.511-5.698 3.824l-61.4 149.986.574 30.782-20.977 19.058-13.289 32.463h69.325l93.183-227.624c1.658-4.051-1.321-8.489-5.698-8.489z" fill="#ff656f"/><path d="m352.103 0h-28.845c-2.5 0-4.751 1.511-5.698 3.824l-95.093 232.289h28.845l95.093-232.289c.947-2.313 3.198-3.824 5.698-3.824z" fill="#ff4756"/><ellipse cx="256" cy="396.049" fill="#ffe181" rx="115.951" ry="115.951" transform="matrix(.707 -.707 .707 .707 -205.068 297.019)"/><path d="m181.902 396.049c0-56.892 40.976-104.211 95.024-114.063-6.788-1.237-13.781-1.888-20.927-1.888-64.038 0-115.951 51.913-115.951 115.951.001 64.038 51.914 115.951 115.952 115.951 7.146 0 14.138-.65 20.927-1.888-54.049-9.852-95.025-57.17-95.025-114.063z" fill="#fec458"/><ellipse cx="256" cy="396.049" fill="#fec458" rx="83.089" ry="83.089" transform="matrix(.707 -.707 .707 .707 -205.068 297.019)"/><path d="m214.765 396.049c0-38.66 26.404-71.149 62.162-80.427-6.686-1.735-13.698-2.662-20.927-2.662-45.889 0-83.089 37.2-83.089 83.089s37.2 83.089 83.089 83.089c7.229 0 14.241-.927 20.927-2.662-35.758-9.278-62.162-41.767-62.162-80.427z" fill="#f9ab49"/><path d="m295.616 388.415c4.382-4.271 1.964-11.712-4.091-12.592l-16.132-2.344c-2.405-.349-4.483-1.86-5.559-4.038l-7.214-14.618c-2.708-5.487-10.532-5.487-13.24 0l-7.214 14.618c-1.075 2.179-3.154 3.689-5.559 4.038l-16.132 2.344c-6.055.88-8.473 8.321-4.091 12.592l11.673 11.378c1.74 1.696 2.534 4.14 2.123 6.534l-2.756 16.067c-1.034 6.031 5.295 10.629 10.711 7.782l14.429-7.586c2.151-1.131 4.72-1.131 6.871 0l14.429 7.586c5.416 2.847 11.746-1.752 10.711-7.782l-2.756-16.067c-.411-2.395.383-4.838 2.123-6.534z" fill="#ffe181"/></g></svg>