<svg height="512" viewBox="0 0 128 128" width="512" xmlns="http://www.w3.org/2000/svg"><g><g><rect fill="#2d3c6b" height="11.497" rx="5.748" width="84.375" x="21.812" y="107.474"/><path d="m95.5 107.474h-63l14.072-26.504h34.856z" fill="#ffc839"/><path d="m45.805 99.474 5.577-10.504h25.236l5.577 10.504z" fill="#ff9100"/><path d="m33.156 9.029v40.089a25.988 25.988 0 0 0 13.416 22.731h34.856a25.988 25.988 0 0 0 13.416-22.731v-40.089z" fill="#ffc839"/><path d="m56.018 40.439-5.844-7.982 9.835 1.069 3.991-9.052 3.991 9.052 9.835-1.069-5.844 7.982 5.844 7.982-9.835-1.069-3.991 9.052-3.991-9.052-9.835 1.069z" fill="#fcf9f0"/><g fill="#ff9100"><path d="m46.572 71.849h34.857v9.121h-34.857z"/><path d="m112.247 16.473h-17.4v8h17.4a6.007 6.007 0 0 1 6 6v12.734a5.982 5.982 0 0 1 -4.608 5.837l-19.2 4.581a25.9 25.9 0 0 1 -3.421 9.04l24.481-5.84a13.954 13.954 0 0 0 10.751-13.618v-12.734a14.016 14.016 0 0 0 -14.003-14z"/><path d="m15.753 16.473h17.4v8h-17.4a6.007 6.007 0 0 0 -6 6v12.734a5.982 5.982 0 0 0 4.608 5.837l19.2 4.581a25.882 25.882 0 0 0 3.421 9.04l-24.482-5.84a13.954 13.954 0 0 1 -10.747-13.618v-12.734a14.016 14.016 0 0 1 14-14z"/></g></g><g><path d="m51.187 117.222h-6.125a1.75 1.75 0 0 0 0 3.5h6.125a1.75 1.75 0 0 0 0-3.5z"/><path d="m76.618 87.221h-25.236a1.75 1.75 0 0 0 -1.546.929l-5.577 10.5a1.751 1.751 0 0 0 1.546 2.571h36.395a1.751 1.751 0 0 0 1.546-2.571l-5.577-10.5a1.75 1.75 0 0 0 -1.551-.929zm-27.9 10.5 3.718-7h23.13l3.718 7z"/><path d="m79.341 31.582a1.75 1.75 0 0 0 -1.7-.865l-8.561.931-3.48-7.879a1.75 1.75 0 0 0 -3.2 0l-3.475 7.879-8.561-.931a1.751 1.751 0 0 0 -1.6 2.774l5.087 6.948-5.087 6.949a1.747 1.747 0 0 0 -.1 1.908 1.729 1.729 0 0 0 1.7.864l8.561-.931 3.475 7.88a1.75 1.75 0 0 0 3.2 0l3.475-7.88 8.561.931a1.726 1.726 0 0 0 1.7-.864 1.749 1.749 0 0 0 -.1-1.908l-5.087-6.949 5.087-6.948a1.751 1.751 0 0 0 .105-1.909zm-11.161 14.029a1.75 1.75 0 0 0 -1.79 1.035l-2.39 5.419-2.39-5.419a1.749 1.749 0 0 0 -1.6-1.044 1.726 1.726 0 0 0 -.19.009l-5.889.641 3.5-4.78a1.753 1.753 0 0 0 0-2.068l-3.5-4.778 5.889.64a1.736 1.736 0 0 0 1.79-1.034l2.39-5.419 2.39 5.419a1.735 1.735 0 0 0 1.79 1.034l5.889-.64-3.499 4.774a1.753 1.753 0 0 0 0 2.068l3.5 4.78z"/><path d="m112.247 14.723h-15.653v-5.695a1.75 1.75 0 0 0 -1.75-1.75h-61.688a1.75 1.75 0 0 0 -1.75 1.75v5.7h-15.653a15.768 15.768 0 0 0 -15.753 15.745v12.734a15.7 15.7 0 0 0 12.1 15.32l23.8 5.677a27.733 27.733 0 0 0 8.928 8.637v7.693l-13.38 25.191h-3.887a7.5 7.5 0 1 0 0 15h4.939a1.75 1.75 0 0 0 0-3.5h-4.939a4 4 0 1 1 0-8h72.878a4 4 0 0 1 0 8h-36.689a1.75 1.75 0 1 0 0 3.5h36.689a7.5 7.5 0 0 0 0-15h-3.887l-13.374-25.191v-7.693a27.733 27.733 0 0 0 8.928-8.641l23.8-5.677a1.75 1.75 0 1 0 -.813-3.4l-20.766 4.952a29.619 29.619 0 0 0 1.61-5.009l18.108-4.32a7.725 7.725 0 0 0 5.955-7.539v-12.734a7.759 7.759 0 0 0 -7.75-7.75h-15.656v-4.5h15.653a12.264 12.264 0 0 1 12.25 12.25v12.734a1.75 1.75 0 1 0 3.5 0v-12.734a15.768 15.768 0 0 0 -15.75-15.75zm-80.747 36.612-16.733-3.993a4.238 4.238 0 0 1 -3.267-4.135v-12.734a4.255 4.255 0 0 1 4.25-4.25h15.656v22.9c0 .739.039 1.477.094 2.212zm-18.59 3.788a12.21 12.21 0 0 1 -9.41-11.916v-12.734a12.263 12.263 0 0 1 12.25-12.25h15.656v4.5h-15.653a7.759 7.759 0 0 0 -7.753 7.75v12.734a7.725 7.725 0 0 0 5.952 7.539l18.108 4.32a29.184 29.184 0 0 0 1.61 5.009zm66.768 24.1h-31.356v-5.623h31.356zm-44.267 26.5 12.213-23h32.752l12.213 23zm45.557-35.623h-33.936a24.248 24.248 0 0 1 -8.591-8.416 24.777 24.777 0 0 1 -3.535-12.566v-38.34h58.188v38.34a24.757 24.757 0 0 1 -3.535 12.566 24.248 24.248 0 0 1 -8.591 8.416zm31.279-43.877a4.255 4.255 0 0 1 4.25 4.25v12.734a4.238 4.238 0 0 1 -3.264 4.135l-16.733 3.993c.059-.735.1-1.473.1-2.217v-22.9z"/></g></g></svg>