<svg height="512" viewBox="0 0 64 64" width="512" xmlns="http://www.w3.org/2000/svg"><g id="reciept-bill-covid19-coronavirus-healthcare"><path d="m56 3a4 4 0 0 0 -4 4v54l-2.67-2-2.68 2-2.67-2-2.66 2-2.67-2-2.67 2-2.66-2-2.67 2-2.66-2-2.67 2-2.66-2-2.67 2-2.66-2-2.66 2-2.67-2v-52a4 4 0 0 1 4-4z" fill="#ffe477"/><path d="m52 7v16h8v-16a4 4 0 0 0 -8 0z" fill="#ff5023"/><path d="m54 7a3.991 3.991 0 0 1 3-3.859 3.953 3.953 0 0 0 -5 3.859v16h2z" fill="#df461f"/><path d="m30 17h4v-3h3v-4h-3v-3h-4v3h-3v4h3z" fill="#d80027"/><path d="m22 21h24v4h-24z" fill="#5eac24"/><path d="m18 25h4v12h-4z" fill="#7ed63e"/><path d="m18 21h4v4h-4z" fill="#4e901e"/><path d="m22 25h24v12h-24z" fill="#91dc5a"/><circle cx="12" cy="47" fill="#ff9811" r="9"/><path d="m12 38a9.045 9.045 0 0 0 -1.5.135 8.989 8.989 0 0 1 0 17.73 9 9 0 1 0 1.5-17.865z" fill="#ee8700"/><path d="m28.46 59.353 2.19 1.647 2.67-2 2.66 2 2.67-2 2.67 2 2.66-2 2.67 2 2.68-2 2.67 2v-34a34.01 34.01 0 0 1 -23.54 32.353z" fill="#ffd422"/><path d="m13 53v-1.1c1.741-.327 3-1.477 3-2.9 0-1.682-1.757-3-4-3-1.221 0-2-.592-2-1s.779-1 2-1 2 .592 2 1a1 1 0 0 0 2 0c0-1.421-1.259-2.571-3-2.9v-1.1a1 1 0 0 0 -2 0v1.1c-1.741.327-3 1.477-3 2.9 0 1.682 1.757 3 4 3 1.221 0 2 .592 2 1s-.779 1-2 1-2-.592-2-1a1 1 0 0 0 -2 0c0 1.421 1.259 2.571 3 2.9v1.1a1 1 0 0 0 2 0z" fill="#d80027"/><g fill="#57a4ff"><path d="m46 42h-16a1 1 0 0 0 0 2h16a1 1 0 0 0 0-2z"/><path d="m46 46h-16a1 1 0 0 0 0 2h16a1 1 0 0 0 0-2z"/><path d="m46 50h-16a1 1 0 0 0 0 2h16a1 1 0 0 0 0-2z"/><path d="m26 42h-1a1 1 0 0 0 0 2h1a1 1 0 0 0 0-2z"/><path d="m26 46h-1a1 1 0 0 0 0 2h1a1 1 0 0 0 0-2z"/><path d="m26 50h-1a1 1 0 0 0 0 2h1a1 1 0 0 0 0-2z"/></g></g></svg>