<svg id="color" enable-background="new 0 0 24 24" height="512" viewBox="0 0 24 24" width="512" xmlns="http://www.w3.org/2000/svg"><path d="m9.476 24.002c-.686 0-1.329-.269-1.81-.756l-6.916-6.916c-.483-.477-.752-1.119-.752-1.805s.268-1.329.756-1.81l4.196-4.195c.141-.141.331-.22.53-.22s.391.079.531.22l9.46 9.48c.292.293.292.768-.001 1.06l-4.19 4.189c-.476.485-1.119.753-1.804.753z" fill="#f5f5f5"/><path d="m4.95 8.52 7.77-7.77c.953-.969 2.653-.971 3.614.004l6.916 6.916c.483.477.752 1.119.752 1.805 0 .685-.268 1.327-.754 1.808l-7.777 7.778z" fill="#90a4ae"/><path d="m10.21 13.79-6 6 3.456 3.456c.48.488 1.123.756 1.81.756.686 0 1.328-.269 1.805-.752l4.19-4.189z" fill="#d5d5d5"/><path d="m19.79 4.21-9.58 9.58 5.261 5.271 7.777-7.778c.486-.48.754-1.123.754-1.808 0-.686-.269-1.328-.752-1.805z" fill="#7d8f97"/></svg>