<svg height="512" viewBox="0 0 128 128" width="512" xmlns="http://www.w3.org/2000/svg"><g><path d="m12.004 40.056h103.992v57.887h-103.992z" fill="#00ddc1" transform="matrix(0 -1 1 0 -5 133)"/><path d="m76.077 25h-24.154a8.867 8.867 0 0 1 -8.867 8.867v70.258a8.867 8.867 0 0 1 8.867 8.875h24.154a8.867 8.867 0 0 1 8.867-8.867v-70.262a8.867 8.867 0 0 1 -8.867-8.871z" fill="#fedb41"/><path d="m76.944 67.25h-3.254v-1.516a5.757 5.757 0 0 0 -5.75-5.75h-3.94a1.751 1.751 0 0 0 -1.75 1.75v12.782h-2.19a2.253 2.253 0 0 1 -2.25-2.25v-10.532a1.75 1.75 0 0 0 -3.5 0v5.516h-3.254a1.75 1.75 0 0 0 0 3.5h3.254v1.516a5.757 5.757 0 0 0 5.75 5.75h3.94a1.751 1.751 0 0 0 1.75-1.75v-12.782h2.19a2.253 2.253 0 0 1 2.25 2.25v10.532a1.75 1.75 0 1 0 3.5 0v-5.516h3.254a1.75 1.75 0 1 0 0-3.5z" fill="#1689fc"/><path d="m64 43.916a3.586 3.586 0 1 1 -3.586 3.584 3.585 3.585 0 0 1 3.586-3.584z" fill="#ff7816"/><path d="m64 94.084a3.586 3.586 0 1 0 -3.586-3.584 3.585 3.585 0 0 0 3.586 3.584z" fill="#ff7816"/><path d="m1.75 7.004v33.969h33.306v-23.969h57.888v23.969h33.306v-33.969z" fill="#1689fc"/><g fill="#e1e4fb"><path d="m35.056 17h-16.322a6.984 6.984 0 0 0 0 13.968h16.322z"/><path d="m109.266 17h-16.322v13.972h16.322a6.984 6.984 0 0 0 0-13.968z"/></g></g></svg>