<svg id="Capa_1" enable-background="new 0 0 511.997 511.997" height="512" viewBox="0 0 511.997 511.997" width="512" xmlns="http://www.w3.org/2000/svg"><g><g><path d="m106.713 44.919v436.244c0 12.697 10.292 22.989 22.989 22.989h194.109c44.79 0 81.099-36.31 81.099-81.099v-378.134z" fill="#f4dd45"/><path d="m158.458 481.163v-436.244h-51.745v436.244c0 12.697 10.292 22.989 22.989 22.989h51.745c-12.697 0-22.989-10.292-22.989-22.989z" fill="#fcc101"/><path d="m381.922 7.155h-252.219c-12.697 0-22.989 10.293-22.989 22.989v20.774h298.198v-20.773c-.001-12.697-10.293-22.99-22.99-22.99z" fill="#fcc101"/><path d="m181.447 7.155h-51.745c-12.697 0-22.989 10.293-22.989 22.989v20.774h51.745v-20.773c0-12.697 10.292-22.99 22.989-22.99z" fill="#e1960f"/><path d="m363.173 37.836h-214.721c-6.107 0-11.058 4.951-11.058 11.058v180.163c0 6.107 4.951 11.058 11.058 11.058h214.721c6.107 0 11.058-4.951 11.058-11.058v-180.163c0-6.107-4.951-11.058-11.058-11.058z" fill="#477b9e"/><path d="m179.301 229.057v-180.163c0-6.107 4.951-11.058 11.058-11.058h-41.907c-6.107 0-11.058 4.951-11.058 11.058v180.163c0 6.107 4.951 11.058 11.058 11.058h41.907c-6.108 0-11.058-4.951-11.058-11.058z" fill="#365e7d"/><path d="m220.455 329.101h-10.893c-3.434 0-6.218-2.784-6.218-6.218v-10.893c0-3.434-2.784-6.218-6.218-6.218h-20.945c-3.434 0-6.218 2.784-6.218 6.218v10.893c0 3.434-2.784 6.218-6.218 6.218h-10.893c-3.434 0-6.218 2.784-6.218 6.218v20.945c0 3.434 2.784 6.218 6.218 6.218h10.893c3.434 0 6.218 2.784 6.218 6.218v10.894c0 3.434 2.784 6.218 6.218 6.218h20.945c3.434 0 6.218-2.784 6.218-6.218v-10.894c0-3.434 2.784-6.218 6.218-6.218h10.893c3.434 0 6.218-2.784 6.218-6.218v-20.945c0-3.434-2.784-6.218-6.218-6.218z" fill="#477b9e"/><path d="m190.814 379.594v-10.894c0-3.434-2.784-6.218-6.218-6.218h-10.893c-3.434 0-6.218-2.784-6.218-6.218v-20.945c0-3.434 2.784-6.218 6.218-6.218h10.893c3.434 0 6.218-2.784 6.218-6.218v-10.893c0-3.434 2.784-6.218 6.218-6.218h-20.851c-3.434 0-6.218 2.784-6.218 6.218v10.893c0 3.434-2.784 6.218-6.218 6.218h-10.893c-3.434 0-6.218 2.784-6.218 6.218v20.945c0 3.434 2.784 6.218 6.218 6.218h10.893c3.434 0 6.218 2.784 6.218 6.218v10.894c0 3.434 2.784 6.218 6.218 6.218h20.851c-3.434-.001-6.218-2.784-6.218-6.218z" fill="#365e7d"/><circle cx="300.966" cy="364.029" fill="#f87c68" r="18.238"/><circle cx="346.789" cy="327.554" fill="#f87c68" r="18.238"/><path d="m300.057 364.029c0-6.936 3.873-12.967 9.573-16.05-2.578-1.394-5.528-2.187-8.665-2.187-10.072 0-18.238 8.165-18.238 18.238 0 10.072 8.165 18.238 18.238 18.238 3.136 0 6.087-.793 8.665-2.187-5.7-3.085-9.573-9.116-9.573-16.052z" fill="#ec625e"/><path d="m345.88 327.554c0-6.936 3.873-12.967 9.573-16.05-2.578-1.394-5.528-2.187-8.665-2.187-10.072 0-18.238 8.165-18.238 18.238 0 10.072 8.166 18.238 18.238 18.238 3.136 0 6.087-.793 8.665-2.188-5.7-3.085-9.573-9.115-9.573-16.051z" fill="#ec625e"/><path d="m326.08 65.001h-140.536c-4.001 0-7.244 3.243-7.244 7.244v133.46c0 4.001 3.243 7.244 7.244 7.244h140.536c4.001 0 7.244-3.243 7.244-7.244v-133.46c0-4-3.243-7.244-7.244-7.244z" fill="#7fb3fa"/><path d="m226.574 205.705v-133.46c0-4.001 3.243-7.244 7.244-7.244h-48.273c-4 0-7.244 3.243-7.244 7.244v133.46c0 4 3.243 7.244 7.244 7.244h48.273c-4.001 0-7.244-3.243-7.244-7.244z" fill="#64a6f4"/></g><g><path d="m234.359 356.608v-20.944c0-7.564-6.153-13.719-13.718-13.719h-9.611v-9.61c0-7.564-6.153-13.719-13.718-13.719h-20.945c-7.564 0-13.719 6.154-13.719 13.719v9.61h-9.611c-7.564 0-13.718 6.154-13.718 13.719v20.944c0 7.564 6.153 13.719 13.718 13.719h9.611v9.611c0 7.564 6.154 13.718 13.719 13.718h20.945c7.564 0 13.718-6.153 13.718-13.718v-9.611h9.611c7.565 0 13.718-6.154 13.718-13.719zm-15-1.281h-9.611c-7.564 0-13.718 6.153-13.718 13.718v9.611h-18.382v-9.611c0-7.564-6.153-13.718-13.718-13.718h-9.611v-18.382h9.611c7.564 0 13.718-6.153 13.718-13.718v-9.611h18.382v9.611c0 7.564 6.153 13.718 13.718 13.718h9.611z"/><path d="m326.89 364.374c0-14.191-11.546-25.737-25.737-25.737-14.192 0-25.738 11.546-25.738 25.737 0 14.192 11.546 25.738 25.738 25.738 14.191 0 25.737-11.546 25.737-25.738zm-25.738 10.738c-5.921 0-10.738-4.817-10.738-10.738s4.817-10.737 10.738-10.737 10.737 4.816 10.737 10.737-4.816 10.738-10.737 10.738z"/><path d="m372.713 327.898c0-14.191-11.546-25.737-25.737-25.737-14.192 0-25.738 11.546-25.738 25.737 0 14.192 11.546 25.738 25.738 25.738 14.191.001 25.737-11.545 25.737-25.738zm-36.476 0c0-5.921 4.817-10.737 10.738-10.737s10.737 4.816 10.737 10.737-4.816 10.738-10.737 10.738-10.738-4.817-10.738-10.738z"/><path d="m99.399 30.489v451.02c0 16.812 13.678 30.488 30.489 30.488h194.109c48.854 0 88.6-39.745 88.6-88.599v-163.68c0-4.143-3.357-7.5-7.5-7.5s-7.5 3.357-7.5 7.5v163.68c0 40.582-33.017 73.599-73.6 73.599h-194.108c-8.541 0-15.489-6.948-15.489-15.488v-422.745h15.681v170.638c0 10.233 8.325 18.559 18.558 18.559h214.722c10.232 0 18.558-8.325 18.558-18.559v-170.638h15.681v165.955c0 4.143 3.357 7.5 7.5 7.5s7.5-3.357 7.5-7.5c0-7.844 0-185.717 0-194.229-.002-16.812-13.68-30.49-30.492-30.49h-252.22c-16.81 0-30.489 13.678-30.489 30.489zm267.518 198.912c0 1.962-1.596 3.559-3.558 3.559h-214.721c-1.962 0-3.558-1.597-3.558-3.559 0-10.88 0-171.869 0-180.162 0-1.962 1.596-3.559 3.558-3.559h214.722c1.962 0 3.558 1.597 3.558 3.559-.001 8.161-.001 169.274-.001 180.162zm14.176-185.637c-2.605-8.105-9.934-13.083-17.733-13.083h-214.722c-7.812 0-15.135 4.999-17.733 13.083h-16.505v-13.274c0-8.387 6.855-15.489 15.489-15.489h252.22c8.54 0 15.489 6.948 15.489 15.489v13.273h-16.505z"/><path d="m150.988 445.848v21.136c0 4.143 3.357 7.5 7.5 7.5s7.5-3.357 7.5-7.5v-21.136c0-4.143-3.357-7.5-7.5-7.5s-7.5 3.357-7.5 7.5z"/><path d="m179.34 445.848v21.136c0 4.143 3.357 7.5 7.5 7.5s7.5-3.357 7.5-7.5v-21.136c0-4.143-3.357-7.5-7.5-7.5s-7.5 3.357-7.5 7.5z"/><path d="m215.19 438.348c-4.143 0-7.5 3.357-7.5 7.5v21.136c0 4.143 3.357 7.5 7.5 7.5s7.5-3.357 7.5-7.5v-21.136c0-4.143-3.357-7.5-7.5-7.5z"/><path d="m236.041 445.848v21.136c0 4.143 3.357 7.5 7.5 7.5s7.5-3.357 7.5-7.5v-21.136c0-4.143-3.357-7.5-7.5-7.5s-7.5 3.357-7.5 7.5z"/><path d="m264.393 445.848v21.136c0 4.143 3.357 7.5 7.5 7.5s7.5-3.357 7.5-7.5v-21.136c0-4.143-3.357-7.5-7.5-7.5s-7.5 3.357-7.5 7.5z"/><path d="m292.743 445.848v21.136c0 4.143 3.357 7.5 7.5 7.5s7.5-3.357 7.5-7.5v-21.136c0-4.143-3.357-7.5-7.5-7.5s-7.5 3.357-7.5 7.5z"/><path d="m328.594 474.483c4.143 0 7.5-3.357 7.5-7.5v-21.136c0-4.143-3.357-7.5-7.5-7.5s-7.5 3.357-7.5 7.5v21.136c0 4.143 3.357 7.5 7.5 7.5z"/><path d="m246.633 95.126c-2.929 2.93-2.929 7.678 0 10.607l44.835 44.835c2.931 2.929 7.678 2.928 10.607 0 2.929-2.93 2.929-7.678 0-10.607l-44.835-44.835c-2.929-2.928-7.678-2.928-10.607 0z"/><path d="m308.97 119.144c2.929-2.93 2.929-7.678 0-10.607l-20.832-20.832c-2.93-2.928-7.678-2.928-10.607 0-2.929 2.93-2.929 7.678 0 10.607l20.832 20.832c2.93 2.928 7.677 2.927 10.607 0z"/><path d="m326.267 57.847h-140.537c-8.13 0-14.744 6.613-14.744 14.743v133.461c0 8.13 6.614 14.743 14.744 14.743h52.768c4.143 0 7.5-3.357 7.5-7.5s-3.357-7.5-7.5-7.5h-52.512v-132.947h140.024v132.947h-52.512c-4.143 0-7.5 3.357-7.5 7.5s3.357 7.5 7.5 7.5h52.769c8.13 0 14.743-6.613 14.743-14.743v-133.461c0-8.13-6.614-14.743-14.743-14.743z"/></g></g></svg>